<?xml version="1.0" encoding="utf-8"?>
<svg viewBox="0 0 500 500" xmlns="http://www.w3.org/2000/svg">
  <path d="M 487.459 476.665 C 487.252 475.203 487.057 473.822 486.98 472.715 C 486.668 468.27 485.619 462.748 480.255 459.476 C 476.837 457.39 471.701 456.721 466.755 457.696 C 456.373 443.672 444.163 430.625 432.351 418.003 L 428.085 413.441 C 426.369 411.601 424.685 409.809 423.005 408.023 C 420.463 410.266 417.836 412.416 415.222 414.573 C 414.386 415.262 413.182 414.103 414.013 413.363 C 416.565 411.094 418.96 408.683 421.321 406.232 C 406.769 390.813 393.501 377.37 380.952 365.329 C 380.67 365.058 380.35 364.854 379.968 364.696 C 379.911 364.675 379.853 364.654 379.794 364.634 C 380.835 361.132 381.987 357.61 383.103 354.198 C 385.296 347.496 387.557 340.577 389.072 333.539 C 391.516 335.097 394.622 334.847 396.665 332.805 C 398.197 331.275 398.772 328.889 398.177 326.786 C 399.029 326.492 399.782 326.021 400.422 325.381 L 400.571 325.233 C 401.735 324.069 402.38 322.402 402.342 320.658 C 402.306 319.023 401.669 317.559 400.549 316.534 C 398.813 314.946 396.374 314.426 394.249 315.125 C 393.968 314.16 393.453 313.322 392.742 312.67 C 390.256 310.397 386.518 310.405 384.234 312.69 C 382.662 314.262 382.115 316.749 382.795 318.878 C 381.747 319.14 380.807 319.669 380.042 320.433 C 378.002 322.475 377.712 325.965 379.322 328.274 C 376.703 333.504 374.178 338.871 371.732 344.066 C 371.136 345.335 370.537 346.601 369.939 347.868 C 368.442 352.355 366.89 356.829 365.115 361.2 C 364.777 362.028 363.53 361.734 363.743 360.821 C 364.727 356.628 365.917 352.471 367.162 348.332 C 332.246 313.879 297.34 279.416 262.434 244.953 C 204.526 187.779 146.617 130.606 88.67 73.471 L 39.532 25.022 C 38.647 24.149 37.709 23.087 36.716 21.961 C 34.614 19.583 32.235 16.888 29.815 15.469 C 25.791 13.111 20.268 12.12 14.93 11.164 C 12.703 10.764 10.6 10.388 8.721 9.928 C 7.879 9.718 7.026 9.909 6.339 10.398 C 15.475 19.947 25.798 28.308 34.804 37.983 C 35.597 38.836 34.339 40.103 33.521 39.265 C 24.636 30.166 14.468 22.452 5.218 13.75 C 5.66 15.55 6.096 17.353 6.529 19.155 C 7.429 22.893 8.36 26.759 9.357 30.542 C 10.351 34.319 11.988 35.945 14.464 38.407 C 14.803 38.743 15.161 39.099 15.537 39.48 L 41.481 65.731 C 58.561 83.011 75.635 100.297 92.703 117.588 L 194.944 221.159 C 237.321 264.09 281.142 308.482 324.562 351.823 L 326.299 353.557 C 332.506 359.756 338.91 366.142 345.381 372.324 C 346.839 371.526 348.299 370.73 349.758 369.933 C 350.113 369.74 355.722 366.7 356.453 367.159 C 356.206 366.839 355.469 366.306 355.332 366.132 C 352.925 363.035 349.58 360.379 346.799 357.598 C 346.57 357.37 346.473 356.923 346.676 356.645 C 347.232 355.882 347.877 355.17 348.544 354.476 C 333.502 340.246 318.999 325.429 304.316 310.833 C 252.701 259.528 201.334 207.978 149.91 156.484 C 114.112 120.637 78.672 84.372 42.5 48.902 C 41.494 47.917 43.041 46.373 44.044 47.359 C 59.03 62.054 73.924 76.836 88.764 91.68 C 140.215 143.146 191.673 194.606 243.011 246.186 C 278.559 281.902 314.294 317.448 349.601 353.402 C 350.337 352.686 351.084 351.98 351.797 351.274 C 352.1 350.973 352.588 350.986 352.892 351.274 C 354.244 352.555 355.601 353.829 356.957 355.104 C 357.693 355.795 356.581 356.904 355.85 356.211 C 355.318 355.706 353.621 353.558 352.549 352.83 C 352.512 353.102 351.715 353.549 351.197 354.076 C 350.991 354.285 350.644 354.575 350.269 354.896 C 350.185 355.023 350.071 355.129 349.932 355.191 C 349.283 355.76 348.639 356.387 348.51 356.87 C 348.596 356.981 348.728 357.17 348.935 357.501 C 350.954 360.736 355.029 363.555 357.754 366.263 C 358.113 366.619 358.052 367.288 357.591 367.534 C 353.877 369.519 350.151 371.498 346.4 373.427 C 339.476 377.225 331.428 381.696 323.449 386.427 C 323.215 386.476 322.993 386.533 322.778 386.603 C 322.497 385.634 321.984 384.793 321.27 384.14 C 318.783 381.869 315.046 381.876 312.763 384.161 C 311.193 385.732 310.644 388.218 311.324 390.349 C 310.275 390.609 309.335 391.14 308.571 391.906 C 307.401 393.075 306.753 394.75 306.793 396.5 C 306.829 398.142 307.468 399.613 308.591 400.639 C 310.435 402.325 312.989 402.814 315.186 401.964 C 315.476 402.875 315.979 403.672 316.664 404.297 C 319.158 406.577 322.903 406.568 325.193 404.278 C 326.725 402.746 327.3 400.358 326.707 398.256 C 327.554 397.959 328.322 397.482 328.953 396.85 L 329.099 396.704 C 329.878 395.925 330.422 394.918 330.685 393.774 C 342.101 390.309 352.428 387.023 362.226 383.734 C 362.273 383.793 362.323 383.85 362.376 383.903 C 364.732 386.36 376.222 398.004 381.791 403.593 C 383.376 402.211 384.993 400.877 386.55 399.555 C 387.096 399.089 387.801 399.793 387.336 400.341 C 386.012 401.898 384.679 403.515 383.296 405.1 C 383.659 405.461 383.972 405.772 384.213 406.009 C 385.541 407.318 386.875 408.62 388.21 409.923 C 390.54 412.202 392.877 414.471 395.223 416.732 L 395.875 417.36 C 396.857 418.306 397.837 419.25 398.821 420.191 C 402.306 423.525 405.803 426.85 409.319 430.149 L 413.364 433.957 C 426.332 446.169 439.738 458.793 454.284 469.316 C 453.351 474.606 454.824 480.771 457.936 484.455 C 461.99 489.251 467.726 489.822 472.245 489.783 C 472.915 489.79 473.91 489.859 475.089 489.952 C 476.817 490.089 478.77 490.243 480.619 490.243 C 483.975 490.243 486.988 489.734 487.681 487.685 C 488.622 484.899 488.004 480.524 487.459 476.665 Z M 475.101 478.914 C 473.131 480.886 469.884 480.88 467.709 478.893 C 466.787 478.05 466.261 476.828 466.231 475.452 C 466.198 473.976 466.758 472.514 467.731 471.542 C 468.715 470.558 470.012 470.068 471.338 470.068 C 472.671 470.068 474.032 470.566 475.123 471.563 C 476.045 472.407 476.569 473.627 476.6 475.004 C 476.634 476.481 476.074 477.942 475.101 478.914 Z" style="paint-order: fill; fill: rgb(255, 255, 255); transform-origin: 246.693px 250.043px;" transform="matrix(0, 1, -1, 0, -0.000030517578, -0.000005960464)"/>
</svg>